<?xml version="1.0" encoding="UTF-8"?>
<!DOCTYPE svg PUBLIC "-//W3C//DTD SVG 1.1//EN" "http://www.w3.org/Graphics/SVG/1.1/DTD/svg11.dtd">
<!-- Creator: CorelDRAW X8 -->
<svg xmlns="http://www.w3.org/2000/svg" xml:space="preserve" width="127mm" height="25.3998mm" version="1.1" style="shape-rendering:geometricPrecision; text-rendering:geometricPrecision; image-rendering:optimizeQuality; fill-rule:evenodd; clip-rule:evenodd"
viewBox="0 0 12700 2540"
 xmlns:xlink="http://www.w3.org/1999/xlink">
 <defs>
  <style type="text/css">
   <![CDATA[
    .fil0 {fill:#5B5B5B}
    .fil2 {fill:#B0CB1F}
    .fil1 {fill:#5B5B5B;fill-rule:nonzero}
    .fil3 {fill:#B0CB1F;fill-rule:nonzero}
   ]]>
  </style>
 </defs>
 <g id="Слой_x0020_1">
  <metadata id="CorelCorpID_0Corel-Layer"/>
  <g id="_1306237814224">
   <path class="fil0" d="M6578 743c-136,-137 -358,-137 -495,0 -136,137 -136,358 0,495 137,137 359,137 495,0 137,-137 137,-358 0,-495z"/>
   <polygon class="fil1" points="6156,1603 6156,1515 6506,1515 6506,1603 "/>
   <polygon class="fil1" points="3066,1603 3066,1515 5464,1515 5464,1603 "/>
   <path class="fil1" d="M1092 354c126,0 236,38 331,112l-88 132c-80,-51 -158,-76 -234,-76 -45,0 -80,9 -104,26 -25,17 -37,39 -37,68 0,21 5,38 15,52 11,15 30,28 58,40 27,12 68,26 122,42 101,27 176,63 225,107 49,45 73,107 73,187 0,93 -37,166 -112,218 -76,52 -169,78 -281,78 -76,0 -146,-11 -209,-35 -63,-23 -117,-56 -163,-97l113 -127c81,61 166,92 254,92 50,0 91,-10 121,-30 30,-20 45,-48 45,-83 0,-27 -6,-48 -17,-64 -11,-16 -31,-30 -60,-43 -29,-12 -74,-27 -135,-45 -95,-26 -165,-62 -210,-108 -45,-47 -67,-104 -67,-174 0,-52 15,-98 45,-139 30,-41 72,-74 127,-97 55,-24 117,-36 188,-36zm1571 0c75,0 135,26 180,77 44,51 67,120 67,207l0 676 -226 0 0 -640c0,-100 -34,-150 -102,-150 -37,0 -68,11 -95,34 -26,23 -53,59 -82,107l0 649 -225 0 0 -640c0,-100 -35,-150 -103,-150 -37,0 -69,11 -96,34 -26,23 -54,59 -82,107l0 649 -226 0 0 -933 196 0 18 122c70,-99 160,-149 270,-149 54,0 100,14 140,42 39,28 68,66 85,115 38,-50 79,-89 125,-116 45,-27 97,-41 156,-41zm403 558l0 -179 533 0 0 179 -533 0zm1448 155c0,37 6,63 17,80 11,17 29,31 54,40l-48 150c-53,-5 -96,-18 -130,-39 -33,-21 -59,-53 -76,-97 -32,47 -72,82 -119,105 -48,23 -101,34 -160,34 -93,0 -166,-26 -220,-79 -55,-53 -82,-122 -82,-208 0,-101 37,-178 111,-232 73,-53 178,-80 314,-80l117 0 0 -53c0,-60 -14,-102 -42,-126 -27,-24 -72,-36 -133,-36 -68,0 -150,16 -247,49l-53 -153c117,-45 230,-68 339,-68 239,0 358,107 358,322l0 391zm721 -711c35,0 66,4 94,13l-39 218c-28,-7 -56,-10 -83,-10 -55,0 -99,19 -130,59 -32,39 -57,99 -76,181l0 497 -226 0 0 -933 196 0 21 183c22,-67 55,-118 97,-154 42,-36 91,-54 146,-54zm732 914c-33,23 -70,41 -110,53 -41,12 -82,17 -125,17 -91,-1 -161,-27 -209,-78 -47,-51 -71,-127 -71,-227 0,-506 0,-508 0,-860l226 -27 0 233 217 0 -23 162 -194 0 0 487c0,46 8,79 24,99 15,20 40,30 74,30 35,0 72,-11 112,-34l79 145zm5738 -914c111,0 204,37 281,110l-83 118c-33,-24 -64,-41 -94,-53 -29,-12 -59,-18 -90,-18 -34,0 -61,9 -80,28 -19,18 -29,43 -29,75 0,31 11,57 33,76 21,20 65,42 131,68 81,32 141,70 180,113 39,44 58,102 58,175 0,90 -32,162 -95,214 -64,52 -144,78 -242,78 -63,0 -122,-11 -175,-34 -54,-23 -101,-55 -141,-96l106 -116c66,57 133,86 201,86 39,0 70,-10 92,-31 22,-20 34,-49 34,-85 0,-27 -5,-50 -15,-67 -9,-17 -25,-33 -49,-47 -23,-15 -59,-31 -106,-49 -81,-31 -139,-69 -174,-111 -34,-42 -52,-96 -52,-162 0,-79 28,-144 84,-195 56,-51 131,-77 225,-77zm-647 0c62,0 112,24 150,73 38,48 56,112 56,194l0 691 -213 0 0 -668c0,-45 -6,-77 -18,-97 -12,-19 -29,-29 -51,-29 -46,0 -90,44 -132,131l0 663 -212 0 0 -668c0,-84 -22,-126 -67,-126 -48,0 -93,44 -134,131l0 663 -213 0 0 -933 188 0 14 120c62,-97 135,-145 221,-145 43,0 81,14 113,41 32,27 56,65 72,114 62,-103 138,-155 226,-155zm-974 469c0,11 -1,41 -5,90l-481 0c4,97 21,164 50,202 29,39 70,58 122,58 37,0 70,-6 99,-19 30,-12 61,-32 95,-59l90 124c-82,80 -181,119 -296,119 -122,0 -216,-42 -281,-127 -65,-84 -98,-204 -98,-358 0,-154 31,-275 93,-365 63,-89 151,-134 265,-134 109,0 195,40 256,119 61,80 91,196 91,350zm-717 447c-58,46 -125,68 -203,68 -81,0 -143,-23 -185,-69 -42,-47 -64,-110 -64,-190 0,-478 0,-567 0,-906l217 -27 0 233 177 0 -21 157 -156 0 0 543c0,57 25,85 73,85 15,0 29,-2 40,-6 12,-4 27,-12 46,-22l76 134zm-862 -916c111,0 204,37 281,110l-83 118c-33,-24 -64,-41 -94,-53 -29,-12 -59,-18 -90,-18 -34,0 -61,9 -80,28 -19,18 -29,43 -29,75 0,31 11,57 32,76 22,20 66,42 132,68 81,32 141,70 180,113 39,44 58,102 58,175 0,90 -32,162 -95,214 -64,52 -144,78 -242,78 -63,0 -122,-11 -175,-34 -54,-23 -101,-55 -141,-96l106 -116c66,57 133,86 201,86 39,0 70,-10 92,-31 22,-20 33,-49 33,-85 0,-27 -4,-50 -14,-67 -9,-17 -25,-33 -49,-47 -24,-15 -59,-31 -106,-49 -81,-31 -139,-69 -174,-111 -34,-42 -52,-96 -52,-162 0,-79 28,-144 84,-195 56,-51 131,-77 225,-77zm-608 962c-31,112 -80,201 -149,266 -68,65 -159,102 -273,113l-25 -154c74,-15 130,-39 167,-73 37,-33 66,-85 87,-156l-81 0 -236 -933 220 0 155 788 166 -788 215 0 -246 937zm-854 -962c110,0 204,37 280,110l-83 118c-33,-24 -64,-41 -93,-53 -30,-12 -60,-18 -90,-18 -34,0 -61,9 -80,28 -20,18 -29,43 -29,75 0,31 10,57 32,76 22,20 66,42 132,68 81,32 141,70 180,113 38,44 58,102 58,175 0,90 -32,162 -96,214 -63,52 -144,78 -241,78 -64,0 -122,-11 -176,-34 -53,-23 -100,-55 -140,-96l106 -116c66,57 133,86 201,86 39,0 69,-10 92,-31 22,-20 33,-49 33,-85 0,-27 -4,-50 -14,-67 -9,-17 -26,-33 -49,-47 -24,-15 -59,-31 -106,-49 -81,-31 -139,-69 -174,-111 -35,-42 -52,-96 -52,-162 0,-79 28,-144 84,-195 56,-51 131,-77 225,-77zm2830 406c0,-88 -11,-153 -32,-193 -21,-41 -55,-61 -102,-61 -44,0 -77,20 -100,59 -23,39 -37,109 -41,207l275 0 0 -12zm-5761 414c76,0 136,-38 180,-114l0 -189 -94 0c-145,0 -218,54 -218,162 0,45 11,80 33,104 23,25 55,37 99,37z"/>
   <path class="fil2" d="M6293 642c10,40 21,80 32,122 24,0 47,3 69,9l63 -109c33,12 63,30 91,52l-63 109c18,16 33,36 45,58l122 -33c14,33 23,67 27,102l-123 32c3,101 -64,194 -166,221 -119,32 -242,-39 -274,-158 -28,-102 20,-206 108,-255 -11,-42 -22,-83 -32,-123 32,-14 66,-23 101,-27zm70 463c-64,17 -130,-21 -147,-85 -17,-64 21,-130 85,-148 64,-17 130,21 147,85 18,65 -20,131 -85,148z"/>
   <polygon class="fil3" points="6156,1603 6156,1690 6506,1690 6506,1603 "/>
   <polygon class="fil3" points="3064,1603 3064,1690 5462,1690 5462,1603 "/>
   <path class="fil1" d="M1054 1865l0 435 -34 0 0 -403 -126 0 -22 215c-5,51 -10,89 -15,113 -6,25 -12,42 -21,53 -8,11 -21,20 -39,28l-8 -30c11,-6 19,-13 25,-22 5,-9 9,-23 13,-43 4,-21 8,-53 13,-99l24 -247 190 0zm330 435l-31 -120 -149 0 -31 120 -33 0 119 -435 41 0 118 435 -34 0zm-172 -151l133 0 -66 -254 -67 254zm381 -114c41,0 73,11 96,32 22,22 34,54 34,96 0,47 -12,81 -35,103 -24,23 -56,34 -98,34l-85 0 0 -435 182 0 -5 32 -144 0 0 138 55 0zm1 234c31,0 54,-8 69,-25 16,-16 24,-43 24,-81 0,-34 -8,-58 -24,-74 -15,-16 -39,-24 -70,-24l-55 0 0 204 56 0zm352 -411c45,0 81,19 106,57 26,38 39,94 39,168 0,72 -13,127 -39,166 -25,39 -61,58 -106,58 -29,0 -55,-9 -77,-25 -22,-17 -39,-42 -51,-76 -12,-34 -18,-74 -18,-123 0,-48 6,-89 18,-123 12,-34 29,-59 51,-76 22,-18 48,-26 77,-26zm0 32c-35,0 -62,15 -81,47 -20,32 -30,81 -30,146 0,65 10,113 30,145 20,31 47,47 81,47 35,0 63,-16 82,-47 19,-31 29,-80 29,-145 0,-66 -10,-115 -29,-146 -20,-32 -47,-47 -82,-47zm333 -25c94,0 141,43 141,130 0,46 -12,80 -37,102 -25,22 -60,33 -105,33l-42 0 0 170 -33 0 0 -435 76 0zm-1 234c36,0 62,-8 80,-23 18,-16 27,-43 27,-80 0,-36 -8,-62 -26,-77 -17,-16 -44,-24 -79,-24l-44 0 0 204 42 0zm403 201l-31 -120 -149 0 -31 120 -33 0 118 -435 42 0 118 435 -34 0zm-172 -151l132 0 -65 -254 -67 254zm460 -284l-3 32 -104 0 0 403 -33 0 0 -403 -105 0 0 -32 245 0zm186 -7c45,0 80,19 106,57 26,38 39,94 39,168 0,72 -13,127 -39,166 -26,39 -61,58 -106,58 -30,0 -55,-9 -77,-25 -22,-17 -39,-42 -51,-76 -12,-34 -19,-74 -19,-123 0,-48 7,-89 19,-123 12,-34 29,-59 51,-76 22,-18 47,-26 77,-26zm0 32c-35,0 -62,15 -82,47 -19,32 -29,81 -29,146 0,65 10,113 29,145 20,31 47,47 82,47 35,0 62,-16 81,-47 20,-31 29,-80 29,-145 0,-66 -9,-115 -29,-146 -19,-32 -46,-47 -81,-47zm333 -25c94,0 141,43 141,130 0,46 -12,80 -37,102 -25,22 -60,33 -105,33l-42 0 0 170 -34 0 0 -435 77 0zm-1 234c35,0 62,-8 80,-23 18,-16 27,-43 27,-80 0,-36 -9,-62 -26,-77 -18,-16 -44,-24 -80,-24l-43 0 0 204 42 0zm476 201l-33 0 0 -233c0,-55 1,-108 4,-161l-165 394 -42 0 0 -435 34 0 0 233c0,57 -2,110 -5,161l166 -394 41 0 0 435zm331 -435l0 435 -34 0 0 -182 -86 0 -75 182 -37 0 80 -188c-23,-9 -41,-24 -54,-42 -12,-19 -19,-44 -19,-76 0,-86 46,-129 138,-129l87 0zm-34 223l0 -193 -52 0c-36,0 -62,8 -78,24 -17,16 -25,41 -25,75 0,32 7,55 22,71 14,15 34,23 60,23l73 0zm561 212l-33 0 0 -233c0,-55 1,-108 5,-161l-166 394 -42 0 0 -435 34 0 0 233c0,57 -2,110 -5,161l166 -394 41 0 0 435zm335 0l0 -214 -168 0 0 214 -33 0 0 -435 33 0 0 190 168 0 0 -190 34 0 0 435 -34 0zm363 -435l-3 32 -104 0 0 403 -33 0 0 -403 -105 0 0 -32 245 0zm264 0l-4 31 -144 0 0 163 125 0 0 31 -125 0 0 179 152 0 0 31 -186 0 0 -435 182 0zm307 0l-5 33 -164 0 0 402 -34 0 0 -435 203 0zm158 0c94,0 142,43 142,130 0,46 -13,80 -38,102 -25,22 -59,33 -105,33l-42 0 0 170 -33 0 0 -435 76 0zm-1 234c36,0 63,-8 80,-23 18,-16 27,-43 27,-80 0,-36 -8,-62 -26,-77 -17,-16 -44,-24 -79,-24l-44 0 0 204 42 0zm403 201l-31 -120 -149 0 -31 120 -33 0 119 -435 41 0 118 435 -34 0zm-172 -151l133 0 -66 -254 -67 254zm522 119l37 0 0 124 -25 0 -7 -92 -234 0 0 -435 33 0 0 403 163 0 0 -403 33 0 0 403zm370 32l-33 0 0 -233c0,-55 1,-108 4,-161l-165 394 -42 0 0 -435 33 0 0 233c0,57 -1,110 -4,161l166 -394 41 0 0 435zm257 -442c45,0 80,19 106,57 26,38 39,94 39,168 0,72 -13,127 -39,166 -26,39 -61,58 -106,58 -29,0 -55,-9 -77,-25 -22,-17 -39,-42 -51,-76 -12,-34 -18,-74 -18,-123 0,-48 6,-89 18,-123 12,-34 29,-59 51,-76 22,-18 48,-26 77,-26zm0 32c-35,0 -62,15 -81,47 -20,32 -30,81 -30,146 0,65 10,113 30,145 20,31 47,47 81,47 35,0 63,-16 82,-47 19,-31 29,-80 29,-145 0,-66 -10,-115 -29,-146 -20,-32 -47,-47 -82,-47zm458 410l0 -214 -168 0 0 214 -33 0 0 -435 33 0 0 190 168 0 0 -190 34 0 0 435 -34 0zm368 0l0 -214 -168 0 0 214 -33 0 0 -435 33 0 0 190 168 0 0 -190 34 0 0 435 -34 0zm247 -268c43,0 76,11 99,32 22,22 34,54 34,98 0,47 -12,82 -35,104 -24,23 -56,34 -98,34l-80 0 0 -435 34 0 0 167 46 0zm189 -167l34 0 0 435 -34 0 0 -435zm-185 404c30,0 53,-9 69,-25 16,-17 24,-44 24,-82 0,-35 -8,-60 -24,-76 -16,-16 -40,-24 -72,-24l-47 0 0 207 50 0zm448 -205l111 236 -37 0 -94 -210 -93 210 -34 0 107 -234 -97 -201 36 0 81 178 82 -178 34 0 -96 199zm426 -199c95,0 142,43 142,130 0,46 -13,80 -38,102 -24,22 -59,33 -104,33l-42 0 0 170 -34 0 0 -435 76 0zm0 234c35,0 62,-8 80,-23 18,-16 26,-43 26,-80 0,-36 -8,-62 -25,-77 -18,-16 -44,-24 -80,-24l-43 0 0 204 42 0zm422 -234l-4 31 -145 0 0 163 126 0 0 31 -126 0 0 179 153 0 0 31 -186 0 0 -435 182 0zm464 0l0 435 -360 0 0 -435 33 0 0 403 132 0 0 -403 31 0 0 403 131 0 0 -403 33 0zm316 0l-4 31 -145 0 0 163 126 0 0 31 -126 0 0 179 152 0 0 31 -185 0 0 -435 182 0zm305 435l0 -214 -168 0 0 214 -33 0 0 -435 33 0 0 190 168 0 0 -190 34 0 0 435 -34 0zm403 0l-33 0 0 -233c0,-55 1,-108 4,-161l-165 394 -42 0 0 -435 34 0 0 233c0,57 -2,110 -5,161l166 -394 41 0 0 435zm370 0l-34 0 0 -233c0,-55 2,-108 5,-161l-165 394 -43 0 0 -435 34 0 0 233c0,57 -2,110 -5,161l166 -394 42 0 0 435zm-119 -486c-18,0 -34,-5 -46,-16 -12,-10 -20,-25 -22,-42l21 -5c7,22 23,33 47,33 26,0 41,-11 48,-33l21 5c-2,17 -9,32 -22,42 -13,11 -28,16 -47,16z"/>
  </g>
 </g>
</svg>
