<?xml version="1.0" encoding="UTF-8"?>
<!DOCTYPE svg PUBLIC "-//W3C//DTD SVG 1.1//EN" "http://www.w3.org/Graphics/SVG/1.1/DTD/svg11.dtd">
<!-- Creator: CorelDRAW X7 -->
<svg xmlns="http://www.w3.org/2000/svg" xml:space="preserve" width="130mm" height="30mm" version="1.1" style="shape-rendering:geometricPrecision; text-rendering:geometricPrecision; image-rendering:optimizeQuality; fill-rule:evenodd; clip-rule:evenodd"
viewBox="0 0 1300 300"
 xmlns:xlink="http://www.w3.org/1999/xlink">
 <defs>
  <style type="text/css">
   <![CDATA[
    .fil1 {fill:#B0CB1F}
    .fil0 {fill:#5B5B5B;fill-rule:nonzero}
    .fil2 {fill:#B0CB1F;fill-rule:nonzero}
   ]]>
  </style>
 </defs>
 <g id="Слой_x0020_1">
  <metadata id="CorelCorpID_0Corel-Layer"/>
  <g id="_812406944">
   <g>
    <path class="fil0" d="M1254 51c12,0 23,4 31,12l-9 14c-4,-3 -7,-5 -11,-6 -3,-2 -6,-2 -10,-2 -4,0 -7,1 -9,3 -2,2 -3,5 -3,8 0,4 1,7 3,9 3,2 8,5 15,8 9,3 16,7 21,12 4,5 6,12 6,20 0,10 -3,18 -11,24 -7,6 -16,9 -27,9 -7,0 -14,-1 -20,-4 -6,-2 -11,-6 -15,-11l11 -13c8,7 15,10 23,10 5,0 8,-1 11,-4 2,-2 3,-5 3,-9 0,-3 0,-6 -1,-8 -1,-2 -3,-3 -6,-5 -3,-2 -7,-4 -12,-6 -9,-3 -15,-7 -19,-12 -4,-5 -6,-11 -6,-18 0,-9 3,-17 9,-22 6,-6 15,-9 26,-9zm-73 0c7,0 12,3 16,8 5,6 7,13 7,22l0 78 -24 0 0 -75c0,-5 -1,-9 -2,-11 -2,-2 -3,-3 -6,-3 -5,0 -10,4 -15,14l0 75 -24 0 0 -75c0,-10 -2,-14 -7,-14 -6,0 -11,4 -15,14l0 75 -25 0 0 -105 22 0 1 13c7,-11 16,-16 25,-16 5,0 9,2 13,5 4,3 6,7 8,13 7,-12 16,-18 26,-18zm-110 53c0,1 0,5 -1,10l-54 0c0,11 2,19 6,23 3,4 7,6 13,6 5,0 8,0 12,-2 3,-1 6,-3 10,-6l10 13c-9,10 -20,14 -33,14 -14,0 -24,-5 -32,-14 -7,-10 -11,-23 -11,-41 0,-17 4,-31 11,-41 7,-10 17,-15 30,-15 12,0 22,5 28,13 7,9 11,23 11,40zm-81 50c-7,5 -14,8 -23,8 -9,0 -16,-3 -21,-8 -5,-5 -7,-12 -7,-21 0,-54 0,-64 0,-102l24 -3 0 26 20 0 -2 18 -18 0 0 61c0,6 3,9 9,9 1,0 3,0 4,0 2,-1 3,-2 5,-3l9 15zm-97 -103c12,0 23,4 31,12l-9 14c-4,-3 -7,-5 -11,-6 -3,-2 -6,-2 -10,-2 -4,0 -7,1 -9,3 -2,2 -3,5 -3,8 0,4 1,7 4,9 2,2 7,5 14,8 10,3 16,7 21,12 4,5 6,12 6,20 0,10 -3,18 -10,24 -8,6 -17,9 -28,9 -7,0 -13,-1 -19,-4 -6,-2 -12,-6 -16,-11l12 -13c7,7 15,10 22,10 5,0 8,-1 11,-4 2,-2 3,-5 3,-9 0,-3 0,-6 -1,-8 -1,-2 -3,-3 -6,-5 -2,-2 -6,-4 -12,-6 -9,-3 -15,-7 -19,-12 -4,-5 -6,-11 -6,-18 0,-9 3,-17 9,-22 7,-6 15,-9 26,-9zm-69 108c-3,13 -9,23 -17,30 -7,8 -18,12 -30,13l-3 -17c8,-2 14,-5 19,-8 4,-4 7,-10 9,-18l-9 0 -26 -105 25 0 17 89 19 -89 24 0 -28 105zm-96 -108c12,0 23,4 31,12l-9 14c-4,-3 -7,-5 -10,-6 -4,-2 -7,-2 -11,-2 -3,0 -6,1 -9,3 -2,2 -3,5 -3,8 0,4 1,7 4,9 2,2 7,5 15,8 9,3 16,7 20,12 4,5 6,12 6,20 0,10 -3,18 -10,24 -7,6 -17,9 -28,9 -7,0 -13,-1 -19,-4 -6,-2 -12,-6 -16,-11l12 -13c7,7 15,10 22,10 5,0 8,-1 11,-4 2,-2 4,-5 4,-9 0,-3 -1,-6 -2,-8 -1,-2 -3,-3 -6,-5 -2,-2 -6,-4 -11,-6 -10,-3 -16,-7 -20,-12 -4,-5 -6,-11 -6,-18 0,-9 3,-17 10,-22 6,-6 14,-9 25,-9zm319 46c0,-10 -1,-17 -4,-22 -2,-5 -6,-7 -11,-7 -5,0 -9,2 -11,7 -3,4 -5,12 -5,23l31 0 0 -1zm-990 -46c14,0 27,4 37,12l-10 15c-9,-5 -17,-8 -26,-8 -5,0 -9,1 -12,3 -3,2 -4,4 -4,7 0,3 1,5 2,6 1,2 3,3 6,5 3,1 8,3 14,4 11,3 20,7 25,13 6,5 9,12 9,21 0,10 -5,18 -13,24 -9,6 -19,9 -32,9 -8,0 -16,-1 -23,-4 -7,-3 -13,-6 -19,-11l13 -14c9,7 19,10 29,10 5,0 10,-1 13,-3 4,-3 5,-6 5,-10 0,-3 0,-5 -1,-7 -2,-2 -4,-3 -7,-5 -3,-1 -9,-3 -15,-5 -11,-3 -19,-7 -24,-12 -5,-5 -8,-12 -8,-20 0,-5 2,-11 5,-15 4,-5 9,-9 15,-11 6,-3 13,-4 21,-4zm550 103c-4,3 -8,5 -13,6 -4,1 -9,2 -14,2 -10,0 -18,-3 -23,-9 -6,-6 -9,-14 -9,-25 0,-58 0,-58 0,-97l26 -3 0 26 24 0 -2 18 -22 0 0 55c0,5 1,9 3,11 1,2 4,4 8,4 4,0 8,-2 13,-4l9 16zm-83 -103c4,0 7,1 11,1l-5 25c-3,-1 -6,-1 -9,-1 -6,0 -11,2 -15,7 -3,4 -6,11 -8,20l0 56 -26 0 0 -105 22 0 3 21c2,-8 6,-14 11,-18 4,-4 10,-6 16,-6zm-81 80c0,4 0,7 2,9 1,2 3,4 6,5l-6 17c-6,-1 -10,-2 -14,-5 -4,-2 -7,-6 -9,-11 -4,6 -8,10 -13,12 -6,3 -12,4 -18,4 -11,0 -19,-3 -25,-9 -6,-6 -9,-14 -9,-23 0,-12 4,-21 12,-27 8,-6 20,-9 36,-9l13 0 0 -6c0,-6 -2,-11 -5,-14 -3,-3 -8,-4 -15,-4 -8,0 -17,2 -28,6l-6 -18c13,-5 26,-7 38,-7 27,0 41,12 41,36l0 44zm-46 13c9,0 16,-5 21,-13l0 -22 -11 0c-16,0 -25,6 -25,19 0,5 2,9 4,11 3,3 7,5 11,5zm-118 -30l0 -21 61 0 0 21 -61 0zm-45 -63c9,0 15,3 20,8 5,6 8,14 8,24l0 76 -26 0 0 -72c0,-11 -3,-17 -11,-17 -4,0 -8,1 -11,4 -3,2 -6,6 -9,12l0 73 -25 0 0 -72c0,-11 -4,-17 -12,-17 -4,0 -8,1 -11,4 -3,2 -6,6 -9,12l0 73 -26 0 0 -105 23 0 2 14c7,-12 18,-17 30,-17 6,0 11,1 16,5 4,3 7,7 9,13 5,-6 9,-11 14,-14 6,-3 11,-4 18,-4zm394 141l0 -10 39 0 0 10 -39 0zm48 -97c-2,-1 -3,-2 -4,-3l-7 12c2,2 4,4 5,6l14 -3c-2,-5 -5,-9 -8,-12zm-14 -9c-6,-3 -12,-3 -19,-3 1,5 3,10 4,14 3,0 5,0 8,1l7 -12zm-30 0c-5,2 -9,5 -12,9 -16,15 -16,40 0,55 15,16 40,16 56,0 8,-8 12,-20 11,-32l-14 4c0,11 -7,22 -19,25 -13,3 -27,-5 -31,-18 -3,-12 3,-23 13,-29 -2,-4 -3,-9 -4,-14zm19 49c-7,2 -14,-2 -16,-9 -2,-7 2,-15 9,-17 7,-2 15,3 17,10 2,7 -2,15 -10,16z"/>
    <path class="fil1" d="M643 83c1,5 3,10 4,14 3,0 5,0 8,1l7 -12c4,1 7,3 10,6l-7 12c2,2 4,4 5,6l14 -3c1,3 2,7 3,11l-14 4c0,11 -7,22 -19,25 -13,3 -27,-5 -31,-18 -3,-12 3,-23 13,-29 -2,-4 -3,-9 -4,-14 4,-1 7,-2 11,-3zm-15 109l0 9 39 0 0 -9 -39 0zm23 -57c-7,2 -14,-2 -16,-9 -2,-7 2,-15 9,-17 7,-2 15,3 17,10 2,7 -2,15 -10,16z"/>
   </g>
   <g>
    <polygon class="fil2" points="280,192 280,201 550,201 550,192 "/>
    <polygon class="fil0" points="280,192 280,182 550,182 550,192 "/>
   </g>
   <path class="fil0" d="M295 220c3,0 5,0 7,1 2,1 4,3 6,5l-3 3c-1,-2 -3,-3 -5,-4 -1,-1 -3,-1 -5,-1 -3,0 -5,1 -7,2 -1,2 -2,4 -2,7 0,3 1,5 2,7 2,1 4,3 8,4 5,2 8,4 10,6 2,3 3,6 3,10 0,3 0,6 -2,8 -1,3 -3,5 -5,6 -2,1 -5,2 -8,2 -3,0 -6,-1 -8,-2 -2,-1 -5,-3 -7,-5l3 -2c2,1 4,3 6,4 1,1 4,1 6,1 3,0 6,-1 8,-3 2,-2 2,-5 2,-9 0,-3 0,-5 -2,-7 -1,-2 -4,-3 -8,-5 -4,-2 -8,-4 -10,-6 -2,-2 -3,-5 -3,-9 0,-2 1,-4 2,-6 1,-2 3,-4 5,-5 2,-2 4,-2 7,-2zm52 55l-4 -15 -19 0 -3 15 -5 0 15 -54 6 0 14 54 -4 0zm-21 -19l16 0 -8 -31 -8 31zm41 -35l0 50 18 0 0 4 -23 0 0 -54 5 0zm52 0l0 4 -18 0 0 20 15 0 0 4 -15 0 0 22 19 0 0 4 -24 0 0 -54 23 0zm23 -1c3,0 5,0 7,1 2,1 4,3 6,5l-3 3c-1,-2 -3,-3 -5,-4 -1,-1 -3,-1 -5,-1 -3,0 -5,1 -6,2 -2,2 -3,4 -3,7 0,3 1,5 2,7 2,1 4,3 8,4 5,2 8,4 10,6 2,3 3,6 3,10 0,3 0,6 -2,8 -1,3 -3,5 -5,6 -2,1 -5,2 -8,2 -3,0 -6,-1 -8,-2 -2,-1 -4,-3 -6,-5l2 -2c2,1 4,3 6,4 2,1 4,1 6,1 3,0 6,-1 8,-3 2,-2 3,-5 3,-9 0,-3 -1,-5 -3,-7 -1,-2 -4,-3 -8,-5 -4,-2 -8,-4 -10,-6 -2,-2 -3,-5 -3,-9 0,-2 1,-4 2,-6 1,-2 3,-4 5,-5 2,-2 4,-2 7,-2zm60 0c3,0 6,1 8,3 2,2 3,5 3,9 0,3 -1,5 -3,7 -1,3 -4,5 -7,7l13 16c2,-5 3,-10 4,-15l4 1c-1,6 -3,11 -5,16l8 9 -4 3 -7 -8c-2,2 -4,4 -6,6 -3,1 -5,2 -8,2 -3,0 -5,-1 -8,-2 -2,-1 -3,-3 -5,-5 -1,-2 -1,-5 -1,-7 0,-4 0,-7 2,-9 1,-2 4,-5 7,-7 -2,-3 -4,-5 -5,-7 -1,-2 -2,-4 -2,-7 0,-4 1,-7 3,-9 2,-2 5,-3 9,-3zm0 3c-2,0 -4,1 -5,3 -2,1 -2,3 -2,6 0,2 0,4 1,5 1,2 2,4 4,7 3,-2 5,-4 7,-6 1,-2 2,-4 2,-6 0,-3 -1,-5 -2,-7 -2,-1 -3,-2 -5,-2zm-2 25c-3,2 -5,4 -6,6 -1,2 -2,5 -2,8 0,3 1,5 3,7 2,2 4,3 7,3 2,0 5,0 6,-1 2,-2 4,-4 6,-6l-14 -17zm97 27l-4 0 -2 -26c0,-7 -1,-15 -1,-24l-11 44 -5 0 -11 -44c0,4 0,11 -1,21 0,1 0,2 0,3l-2 26 -4 0 4 -54 6 0 11 42 10 -42 6 0 4 54zm40 0l-4 -15 -19 0 -3 15 -5 0 15 -54 6 0 14 54 -4 0zm-22 -19l17 0 -8 -31 -9 31zm62 19l-12 -24 -2 0 -6 0 0 24 -5 0 0 -54 10 0c12,0 18,5 18,15 0,3 -1,6 -3,8 -2,3 -4,5 -7,6l12 25 -5 0zm-15 -28c5,0 8,-1 10,-3 2,-2 3,-5 3,-8 0,-4 -1,-7 -3,-9 -2,-2 -5,-2 -10,-2l-5 0 0 22 5 0zm36 -26l0 54 -4 0 0 -54 4 0zm24 0l-18 25 19 29 -5 0 -20 -29 19 -25 5 0zm34 0l0 4 -18 0 0 20 15 0 0 4 -15 0 0 22 19 0 0 4 -24 0 0 -54 23 0zm38 0l-1 4 -12 0 0 50 -5 0 0 -50 -13 0 0 -4 31 0zm15 0l0 54 -5 0 0 -54 5 0zm46 54l-6 0 -20 -49c0,5 1,11 1,18l0 31 -5 0 0 -54 6 0 20 49c0,-6 0,-12 0,-16l0 -33 4 0 0 54zm33 -55c2,0 5,0 7,1 1,1 3,2 5,4l-2 3c-2,-2 -3,-3 -5,-3 -1,-1 -3,-1 -5,-1 -4,0 -8,2 -10,5 -3,4 -4,10 -4,19 0,8 1,15 3,18 3,4 6,6 11,6 1,0 3,0 4,-1 2,0 3,-1 5,-2l0 -19 -9 0 0 -4 13 0 0 26c-4,3 -8,4 -13,4 -6,0 -11,-2 -14,-7 -3,-4 -5,-12 -5,-21 0,-7 1,-12 3,-16 1,-4 4,-7 6,-9 3,-2 7,-3 10,-3zm72 55l-4 -15 -19 0 -3 15 -5 0 15 -54 6 0 14 54 -4 0zm-22 -19l17 0 -8 -31 -9 31zm62 19l-11 -24 -3 0 -6 0 0 24 -5 0 0 -54 10 0c12,0 18,5 18,15 0,3 -1,6 -3,8 -1,3 -4,5 -7,6l12 25 -5 0zm-15 -28c5,0 8,-1 10,-3 2,-2 3,-5 3,-8 0,-4 -1,-7 -3,-9 -2,-2 -5,-2 -10,-2l-5 0 0 22 5 0zm55 -26l0 4 -13 0 0 50 -5 0 0 -50 -13 0 0 -4 31 0z"/>
  </g>
 </g>
</svg>
