<svg id="livetype" xmlns="http://www.w3.org/2000/svg" viewBox="0 0 119.66407 40" preserveAspectRatio="xMidYMin slice">
  <g>
    <g>
      <g id="_Group_" data-name="&lt;Group&gt;">
        <g id="_Group_2" data-name="&lt;Group&gt;">
          <g id="_Group_3" data-name="&lt;Group&gt;">
            <path id="_Path_" data-name="&lt;Path&gt;" d="M24.99671,19.88935a5.14625,5.14625,0,0,1,2.45058-4.31771,5.26776,5.26776,0,0,0-4.15039-2.24376c-1.74624-.1833-3.43913,1.04492-4.329,1.04492-.90707,0-2.27713-1.02672-3.75247-.99637a5.52735,5.52735,0,0,0-4.65137,2.8367c-2.01111,3.482-.511,8.59939,1.41551,11.414.96388,1.37823,2.09037,2.91774,3.56438,2.86315,1.4424-.05983,1.98111-.91977,3.7222-.91977,1.72494,0,2.23035.91977,3.73427.88506,1.54777-.02512,2.52292-1.38435,3.453-2.77563a11.39931,11.39931,0,0,0,1.579-3.21589A4.97284,4.97284,0,0,1,24.99671,19.88935Z" style="fill: #ffffff"/>
            <path id="_Path_2" data-name="&lt;Path&gt;" d="M22.15611,11.47681a5.06687,5.06687,0,0,0,1.159-3.62989,5.15524,5.15524,0,0,0-3.33555,1.72582,4.82131,4.82131,0,0,0-1.18934,3.4955A4.26259,4.26259,0,0,0,22.15611,11.47681Z" style="fill: #ffffff"/>
          </g>
        </g>
        <g>
          <path d="M42.30178,27.13965h-4.7334l-1.13672,3.35645H34.42678l4.4834-12.418h2.083l4.4834,12.418H43.43752Zm-4.24316-1.54883h3.752L39.961,20.14355H39.9092Z" style="fill: #ffffff"/>
          <path d="M55.1592,25.96973c0,2.81348-1.50586,4.62109-3.77832,4.62109a3.0693,3.0693,0,0,1-2.84863-1.584h-.043v4.48438h-1.8584V21.44238h1.79883v1.50586h.03418a3.21162,3.21162,0,0,1,2.88281-1.60059C53.64455,21.34766,55.1592,23.16406,55.1592,25.96973Zm-1.91016,0c0-1.833-.94727-3.03809-2.39258-3.03809-1.41992,0-2.375,1.23047-2.375,3.03809,0,1.82422.95508,3.0459,2.375,3.0459C52.30178,29.01563,53.249,27.81934,53.249,25.96973Z" style="fill: #ffffff"/>
          <path d="M65.12453,25.96973c0,2.81348-1.50635,4.62109-3.77881,4.62109a3.0693,3.0693,0,0,1-2.84863-1.584h-.043v4.48438h-1.8584V21.44238h1.79883v1.50586h.03418a3.21162,3.21162,0,0,1,2.88281-1.60059C63.6094,21.34766,65.12453,23.16406,65.12453,25.96973Zm-1.91064,0c0-1.833-.94727-3.03809-2.39258-3.03809-1.41992,0-2.375,1.23047-2.375,3.03809,0,1.82422.95508,3.0459,2.375,3.0459C62.26662,29.01563,63.21389,27.81934,63.21389,25.96973Z" style="fill: #ffffff"/>
          <path d="M71.70949,27.03613c.1377,1.23145,1.334,2.04,2.96875,2.04,1.56641,0,2.69336-.80859,2.69336-1.91895,0-.96387-.67969-1.541-2.28906-1.93652l-1.60937-.3877c-2.28027-.55078-3.33887-1.61719-3.33887-3.34766,0-2.14258,1.86719-3.61426,4.51758-3.61426,2.625,0,4.42383,1.47168,4.48438,3.61426h-1.876c-.1123-1.23926-1.13672-1.9873-2.63379-1.9873s-2.52148.75684-2.52148,1.8584c0,.87793.6543,1.39453,2.25488,1.79l1.36816.33594c2.54785.60254,3.60547,1.626,3.60547,3.44238,0,2.32324-1.84961,3.77832-4.793,3.77832-2.75391,0-4.61328-1.4209-4.7334-3.667Z" style="fill: #ffffff"/>
          <path d="M83.34621,19.2998v2.14258h1.72168v1.47168H83.34621v4.99121c0,.77539.34473,1.13672,1.10156,1.13672a5.80752,5.80752,0,0,0,.61133-.043v1.46289a5.10351,5.10351,0,0,1-1.03223.08594c-1.833,0-2.54785-.68848-2.54785-2.44434V22.91406H80.16262V21.44238H81.479V19.2998Z" style="fill: #ffffff"/>
          <path d="M86.064,25.96973c0-2.84863,1.67773-4.63867,4.29395-4.63867,2.625,0,4.29492,1.79,4.29492,4.63867,0,2.85645-1.66113,4.63867-4.29492,4.63867C87.72512,30.6084,86.064,28.82617,86.064,25.96973Zm6.69531,0c0-1.9541-.89551-3.10742-2.40137-3.10742s-2.40137,1.16211-2.40137,3.10742c0,1.96191.89551,3.10645,2.40137,3.10645S92.7593,27.93164,92.7593,25.96973Z" style="fill: #ffffff"/>
          <path d="M96.18508,21.44238h1.77246v1.541h.043a2.1594,2.1594,0,0,1,2.17773-1.63574,2.86616,2.86616,0,0,1,.63672.06934v1.73828a2.59794,2.59794,0,0,0-.835-.1123,1.87264,1.87264,0,0,0-1.93652,2.083v5.37012h-1.8584Z" style="fill: #ffffff"/>
          <path d="M109.38332,27.83691c-.25,1.64355-1.85059,2.77148-3.89844,2.77148-2.63379,0-4.26855-1.76465-4.26855-4.5957,0-2.83984,1.64355-4.68164,4.19043-4.68164,2.50488,0,4.08008,1.7207,4.08008,4.46582v.63672h-6.39453v.1123a2.358,2.358,0,0,0,2.43555,2.56445,2.04834,2.04834,0,0,0,2.09082-1.27344Zm-6.28223-2.70215h4.52637a2.1773,2.1773,0,0,0-2.2207-2.29785A2.292,2.292,0,0,0,103.10109,25.13477Z" style="fill: #ffffff"/>
        </g>
      </g>
    </g>
    <g id="_Group_4" data-name="&lt;Group&gt;">
      <g>
        <path d="M36.7383,11.25342h.79785a1.0021,1.0021,0,0,0,1.125-.95117c0-.55029-.41406-.90576-1.11621-.90576a1.06357,1.06357,0,0,0-1.2041.93457h-.876a1.87057,1.87057,0,0,1,2.1084-1.74512c1.1748,0,2.002.65771,2.002,1.60449a1.386,1.386,0,0,1-1.084,1.36475v.07031a1.3898,1.3898,0,0,1,1.32715,1.44287,1.9932,1.9932,0,0,1-2.22852,1.77393,1.98335,1.98335,0,0,1-2.24121-1.76562h.88965c.05371.5708.57813.939,1.35156.939s1.27832-.41357,1.27832-.99658c0-.59131-.47559-.95557-1.30664-.95557H36.7383Z" style="fill: #ffffff"/>
        <path d="M40.82912,13.42432c0-.81055.60449-1.27783,1.6748-1.34424l1.21973-.07031v-.38867c0-.47559-.31348-.74414-.92187-.74414-.49609,0-.83887.18213-.93848.50049h-.86035c.09082-.77344.81934-1.26953,1.84082-1.26953,1.12891,0,1.76563.562,1.76563,1.51318v3.07666h-.85645v-.63281h-.07031a1.515,1.515,0,0,1-1.35254.707A1.36026,1.36026,0,0,1,40.82912,13.42432Zm2.89453-.38477v-.37646L42.624,12.7334c-.62012.0415-.90137.25244-.90137.64941,0,.40527.35156.64111.835.64111A1.0615,1.0615,0,0,0,43.72365,13.03955Z" style="fill: #ffffff"/>
        <path d="M46.96779,10.94287v3.75488h-.88867V10.19482H49.044v.748Z" style="fill: #ffffff"/>
        <path d="M54.42971,12.44434c0,1.43066-.72363,2.32764-1.86035,2.32764a1.46778,1.46778,0,0,1-1.38574-.75635H51.1133v2.1792h-.88867v-6h.85547V10.939h.06641a1.56437,1.56437,0,0,1,1.41406-.81885C53.70607,10.12012,54.42971,11.01318,54.42971,12.44434Zm-.91406,0c0-.95117-.4502-1.52588-1.20312-1.52588-.748,0-1.21582.58691-1.21582,1.52979,0,.93848.46777,1.52588,1.21191,1.52588C53.06545,13.97412,53.51565,13.39941,53.51565,12.44434Z" style="fill: #ffffff"/>
        <path d="M55.6133,16.31055v-.76514a2.1,2.1,0,0,0,.29.0166.77034.77034,0,0,0,.81445-.62842l.06641-.21924-1.62988-4.51953h.96777L57.251,13.77148h.07031l1.125-3.57666h.94238L57.71,14.88379c-.38477,1.0957-.81055,1.44727-1.72852,1.44727C55.90725,16.33105,55.69631,16.32275,55.6133,16.31055Z" style="fill: #ffffff"/>
        <path d="M60.08107,13.41992h.88477c.08691.397.459.604.97949.604.5918,0,.95508-.26074.95508-.666,0-.43408-.32617-.64111-.95508-.64111H61.2715v-.69043h.66211c.53711,0,.81055-.20654.81055-.583,0-.33057-.26465-.583-.81055-.583-.49707,0-.86035.21094-.918.56641H60.1592a1.578,1.578,0,0,1,1.77441-1.31885c1.07031,0,1.68262.48389,1.68262,1.24463a.92514.92514,0,0,1-.71094.92188v.07031a1.01015,1.01015,0,0,1,.88086,1.01318c0,.856-.72852,1.42236-1.84082,1.42236C60.96193,14.78027,60.16311,14.32959,60.08107,13.41992Z" style="fill: #ffffff"/>
        <path d="M65.06594,14.69775V10.19482h.88086V13.292h.07031l2.0752-3.09717h.88086v4.50293h-.88086V11.584H68.0259l-2.0791,3.11377Z" style="fill: #ffffff"/>
        <path d="M73.8257,10.94287h-1.418v3.75488h-.88965V10.94287h-1.418v-.748H73.8257Z" style="fill: #ffffff"/>
        <path d="M78.61281,13.48193a1.8299,1.8299,0,0,1-1.95215,1.30273,2.04531,2.04531,0,0,1-2.08008-2.32422,2.07685,2.07685,0,0,1,2.07617-2.35254c1.25293,0,2.00977.856,2.00977,2.27V12.688H75.48684v.0498a1.18914,1.18914,0,0,0,1.19922,1.29,1.07872,1.07872,0,0,0,1.07031-.5459Zm-3.126-1.45117h2.27344a1.08625,1.08625,0,0,0-1.10742-1.1665A1.15045,1.15045,0,0,0,75.48684,12.03076Z" style="fill: #ffffff"/>
        <path d="M82.38039,10.19482h2.03027c.88086,0,1.39746.44629,1.39746,1.145a.96755.96755,0,0,1-.76074.95117v.07031a1.02777,1.02777,0,0,1,.96289,1.03809c0,.78564-.59082,1.29834-1.5791,1.29834H82.38039Zm.88086.68213v1.166h.88086c.53711,0,.79395-.20654.79395-.5874,0-.35107-.22363-.57861-.69531-.57861Zm0,1.81934v1.31934H84.315c.52539,0,.80664-.23193.80664-.65771,0-.45068-.31836-.66162-.918-.66162Z" style="fill: #ffffff"/>
      </g>
    </g>
  </g>
</svg>
